G04 #@! TF.GenerationSoftware,KiCad,Pcbnew,5.1.5-1.fc31*
G04 #@! TF.CreationDate,2020-01-18T20:22:23+01:00*
G04 #@! TF.ProjectId,nabijecka,6e616269-6a65-4636-9b61-2e6b69636164,rev?*
G04 #@! TF.SameCoordinates,Original*
G04 #@! TF.FileFunction,Copper,L1,Top*
G04 #@! TF.FilePolarity,Positive*
%FSLAX46Y46*%
G04 Gerber Fmt 4.6, Leading zero omitted, Abs format (unit mm)*
G04 Created by KiCad (PCBNEW 5.1.5-1.fc31) date 2020-01-18 20:22:23*
%MOMM*%
%LPD*%
G04 APERTURE LIST*
%ADD10O,1.600000X1.600000*%
%ADD11C,1.600000*%
%ADD12O,1.905000X2.000000*%
%ADD13R,1.905000X2.000000*%
%ADD14R,1.600000X1.600000*%
%ADD15R,1.800000X1.800000*%
%ADD16C,1.800000*%
%ADD17O,2.200000X2.200000*%
%ADD18R,2.200000X2.200000*%
%ADD19C,2.600000*%
%ADD20C,2.340000*%
%ADD21C,2.000000*%
%ADD22C,1.000000*%
G04 APERTURE END LIST*
D10*
X123190000Y-81280000D03*
D11*
X123190000Y-93980000D03*
D12*
X129540000Y-71120000D03*
X127000000Y-71120000D03*
D13*
X124460000Y-71120000D03*
D12*
X118110000Y-71120000D03*
X115570000Y-71120000D03*
D13*
X113030000Y-71120000D03*
D14*
X157480000Y-71120000D03*
D11*
X157480000Y-74620000D03*
X165020000Y-80010000D03*
X160020000Y-80010000D03*
X146050000Y-96520000D03*
X151050000Y-96520000D03*
D15*
X148590000Y-92710000D03*
D16*
X148590000Y-90170000D03*
X148590000Y-87630000D03*
D17*
X129540000Y-91440000D03*
D18*
X129540000Y-81280000D03*
X106680000Y-91440000D03*
D17*
X106680000Y-81280000D03*
X113030000Y-81280000D03*
D18*
X113030000Y-91440000D03*
X160020000Y-85090000D03*
D17*
X160020000Y-95250000D03*
D19*
X166370000Y-71120000D03*
X166370000Y-97790000D03*
X100330000Y-71120000D03*
X100330000Y-96520000D03*
D11*
X154940000Y-80010000D03*
D10*
X154940000Y-92710000D03*
D11*
X118110000Y-93980000D03*
D10*
X118110000Y-81280000D03*
D11*
X105410000Y-76200000D03*
D10*
X130810000Y-76200000D03*
X148590000Y-82550000D03*
D11*
X148590000Y-69850000D03*
D20*
X140890000Y-96520000D03*
X138390000Y-86520000D03*
X135890000Y-96520000D03*
D14*
X134620000Y-81280000D03*
D10*
X142240000Y-73660000D03*
X137160000Y-81280000D03*
X139700000Y-73660000D03*
X139700000Y-81280000D03*
X137160000Y-73660000D03*
X142240000Y-81280000D03*
X134620000Y-73660000D03*
D21*
X162560000Y-67310000D02*
X166370000Y-71120000D01*
X118110000Y-71120000D02*
X118110000Y-67310000D01*
X157480000Y-68320000D02*
X157480000Y-67310000D01*
X157480000Y-71120000D02*
X157480000Y-68320000D01*
X157480000Y-67310000D02*
X162560000Y-67310000D01*
X129540000Y-68120000D02*
X129540000Y-67310000D01*
X129540000Y-71120000D02*
X129540000Y-68120000D01*
X118110000Y-67310000D02*
X129540000Y-67310000D01*
X129540000Y-67310000D02*
X148590000Y-67310000D01*
X148590000Y-67310000D02*
X157480000Y-67310000D01*
D22*
X148590000Y-69850000D02*
X148590000Y-67310000D01*
D21*
X165070001Y-99089999D02*
X166370000Y-97790000D01*
X100330000Y-96520000D02*
X102899999Y-99089999D01*
D22*
X135930000Y-99020000D02*
X135890000Y-99060000D01*
D21*
X102899999Y-99060000D02*
X135890000Y-99060000D01*
D22*
X159630000Y-74620000D02*
X165020000Y-80010000D01*
X157480000Y-74620000D02*
X159630000Y-74620000D01*
X165020000Y-90250000D02*
X160020000Y-95250000D01*
X165020000Y-80010000D02*
X165020000Y-90250000D01*
X160020000Y-95250000D02*
X160020000Y-99060000D01*
D21*
X160020000Y-99060000D02*
X165070001Y-99060000D01*
D22*
X151050000Y-98980000D02*
X151130000Y-99060000D01*
X151050000Y-96520000D02*
X151050000Y-98980000D01*
D21*
X146050000Y-99060000D02*
X151130000Y-99060000D01*
X151130000Y-99060000D02*
X160020000Y-99060000D01*
D22*
X142240000Y-81280000D02*
X146050000Y-85090000D01*
X146050000Y-85090000D02*
X153670000Y-85090000D01*
X160020000Y-91440000D02*
X160020000Y-95250000D01*
X153670000Y-85090000D02*
X160020000Y-91440000D01*
X140890000Y-98980000D02*
X140970000Y-99060000D01*
X140890000Y-96520000D02*
X140890000Y-98980000D01*
D21*
X135890000Y-99060000D02*
X140970000Y-99060000D01*
X140970000Y-99060000D02*
X146050000Y-99060000D01*
D22*
X138430000Y-86360000D02*
X134620000Y-86360000D01*
X134620000Y-86360000D02*
X134620000Y-81280000D01*
X146050000Y-93980000D02*
X146050000Y-95250000D01*
X138430000Y-86360000D02*
X146050000Y-93980000D01*
X146050000Y-95250000D02*
X146050000Y-96520000D01*
X148590000Y-92710000D02*
X137160000Y-81280000D01*
X152400000Y-90170000D02*
X154940000Y-92710000D01*
X148590000Y-90170000D02*
X152400000Y-90170000D01*
X139700000Y-78740000D02*
X139700000Y-81280000D01*
X138430000Y-77470000D02*
X139700000Y-78740000D01*
X129540000Y-81280000D02*
X133350000Y-77470000D01*
X133350000Y-77470000D02*
X138430000Y-77470000D01*
X146050000Y-87630000D02*
X139700000Y-81280000D01*
X148590000Y-87630000D02*
X146050000Y-87630000D01*
X123190000Y-93980000D02*
X123190000Y-91440000D01*
X124460000Y-71120000D02*
X124460000Y-77470000D01*
X123190000Y-91440000D02*
X129540000Y-91440000D01*
X124460000Y-77470000D02*
X124460000Y-78740000D01*
X124460000Y-78740000D02*
X125730000Y-80010000D01*
X125730000Y-80010000D02*
X125730000Y-91440000D01*
D21*
X100330000Y-91440000D02*
X113030000Y-91440000D01*
D22*
X113030000Y-91440000D02*
X106680000Y-91440000D01*
X113030000Y-93980000D02*
X113030000Y-91440000D01*
X135890000Y-96520000D02*
X115570000Y-96520000D01*
X115570000Y-96520000D02*
X113030000Y-93980000D01*
D21*
X100330000Y-71120000D02*
X100330000Y-91440000D01*
D22*
X106680000Y-81280000D02*
X113030000Y-87630000D01*
X113030000Y-87630000D02*
X118110000Y-87630000D01*
X118110000Y-87630000D02*
X118110000Y-93980000D01*
X105580001Y-80180001D02*
X106680000Y-81280000D01*
X102439990Y-77039990D02*
X105580001Y-80180001D01*
X102439990Y-75495833D02*
X102439990Y-77039990D01*
X106815823Y-71120000D02*
X102439990Y-75495833D01*
X113030000Y-71120000D02*
X106815823Y-71120000D01*
X113030000Y-81280000D02*
X113030000Y-83820000D01*
X113030000Y-83820000D02*
X123190000Y-83820000D01*
X123190000Y-83820000D02*
X123190000Y-81280000D01*
D21*
X107950000Y-76200000D02*
X113030000Y-81280000D01*
X105410000Y-76200000D02*
X107950000Y-76200000D01*
D22*
X118110000Y-81280000D02*
X118110000Y-77470000D01*
X115570000Y-74930000D02*
X115570000Y-71120000D01*
X118110000Y-77470000D02*
X115570000Y-74930000D01*
D21*
X127000000Y-73660000D02*
X127000000Y-71120000D01*
X129540000Y-76200000D02*
X127000000Y-73660000D01*
X130810000Y-76200000D02*
X129540000Y-76200000D01*
D22*
X160020000Y-85090000D02*
X160020000Y-80010000D01*
X160020000Y-80010000D02*
X154940000Y-80010000D01*
X154940000Y-80010000D02*
X152400000Y-80010000D01*
X134620000Y-73660000D02*
X134620000Y-69850000D01*
X134620000Y-69850000D02*
X143510000Y-69850000D01*
X143510000Y-69850000D02*
X148590000Y-74930000D01*
X152400000Y-80010000D02*
X148590000Y-80010000D01*
X148590000Y-74930000D02*
X148590000Y-80010000D01*
X148590000Y-82550000D02*
X148590000Y-80010000D01*
M02*
